<?xml version="1.0" standalone="no"?>
<!DOCTYPE svg PUBLIC "-//W3C//DTD SVG 20010904//EN"
 "http://www.w3.org/TR/2001/REC-SVG-20010904/DTD/svg10.dtd">
<svg version="1.0" xmlns="http://www.w3.org/2000/svg"
 width="700.000000pt" height="700.000000pt" viewBox="0 0 700.000000 700.000000"
 preserveAspectRatio="xMidYMid meet">
<metadata>
Created by potrace 1.14, written by Peter Selinger 2001-2017
</metadata>
<g transform="translate(0.000000,700.000000) scale(0.100000,-0.100000)"
fill="#000000" stroke="none">
<path d="M3173 6920 c-39 -4 -102 -11 -140 -14 -37 -4 -75 -9 -83 -11 -8 -2
-35 -7 -60 -10 -25 -3 -88 -15 -140 -26 -397 -84 -733 -216 -1078 -422 -102
-61 -304 -205 -398 -282 -131 -109 -318 -292 -409 -400 -27 -33 -56 -66 -63
-74 -52 -55 -207 -277 -297 -426 -63 -103 -163 -305 -210 -420 -20 -49 -40
-99 -45 -110 -37 -82 -113 -350 -150 -533 -75 -370 -85 -835 -26 -1187 86
-507 258 -949 529 -1355 60 -90 178 -250 212 -286 5 -6 30 -36 55 -65 60 -72
248 -260 335 -335 546 -471 1184 -743 1920 -821 150 -15 633 -7 730 13 11 3
40 7 65 10 88 10 307 57 440 94 315 89 597 216 887 397 l102 63 228 -91 c125
-50 242 -96 258 -103 17 -8 48 -20 70 -29 22 -9 123 -49 225 -90 102 -41 322
-130 490 -196 168 -67 313 -126 323 -131 22 -13 22 -3 -4 62 -20 49 -335 875
-525 1374 -46 122 -84 225 -84 228 0 4 18 38 39 75 138 235 276 564 341 811 7
25 14 52 16 60 15 57 65 303 70 349 3 31 8 64 9 73 14 70 20 210 20 428 0 261
-12 406 -45 585 -5 28 -12 65 -15 83 -15 94 -93 368 -138 487 -38 99 -70 180
-77 194 -5 9 -29 61 -55 115 -171 368 -434 722 -765 1031 -472 440 -1135 760
-1765 851 -16 3 -41 7 -55 10 -14 3 -54 8 -90 10 -36 3 -76 7 -90 10 -41 9
-479 12 -557 4z m483 -344 c55 -4 110 -9 124 -11 14 -2 45 -7 70 -10 25 -2 54
-6 65 -9 11 -2 40 -7 65 -11 25 -4 61 -11 80 -15 19 -5 62 -16 95 -24 180 -44
300 -84 475 -158 360 -154 658 -357 951 -648 295 -293 511 -615 668 -992 57
-139 136 -390 156 -498 3 -14 7 -36 10 -50 62 -279 79 -726 39 -1035 -59 -463
-211 -870 -460 -1231 l-62 -92 58 -153 c258 -676 350 -923 346 -927 -4 -4
-173 60 -271 103 -16 7 -82 33 -145 58 -63 26 -231 93 -373 151 l-258 104 -42
-33 c-175 -139 -469 -312 -662 -390 -49 -20 -99 -40 -110 -45 -110 -48 -421
-127 -575 -145 -25 -3 -54 -8 -65 -10 -90 -18 -454 -25 -640 -11 -1125 81
-2129 802 -2575 1850 -94 219 -182 530 -205 717 -3 24 -7 55 -10 68 -27 143
-28 649 -1 811 3 14 7 42 10 63 19 121 18 117 56 271 56 230 127 418 242 645
175 344 410 648 699 901 264 232 518 392 844 530 147 62 381 137 515 164 14 3
36 7 50 10 39 9 83 17 110 20 57 8 127 18 150 22 14 2 77 7 140 10 63 3 116 7
117 8 5 4 220 -2 319 -8z"/>
<path d="M3139 5036 c-2 -2 -42 -6 -89 -10 -277 -20 -550 -88 -757 -187 -256
-123 -474 -333 -573 -554 -41 -90 -77 -212 -85 -288 l-7 -68 -70 -35 c-140
-70 -218 -178 -253 -349 -24 -114 -23 -349 1 -505 32 -206 70 -380 121 -556
l35 -122 277 3 c152 2 555 6 896 10 341 3 769 8 950 10 413 5 1441 17 1717 19
116 1 212 6 217 11 18 19 81 295 106 465 2 19 8 53 11 75 14 92 12 410 -2 488
-32 176 -106 327 -197 401 -37 30 -150 95 -185 107 -7 2 -15 29 -18 59 -2 30
-9 79 -15 107 -6 29 -10 55 -10 58 0 3 -13 44 -30 92 -99 282 -329 491 -671
611 -179 63 -437 116 -668 137 -36 3 -83 8 -105 11 -48 6 -591 15 -596 10z
m436 -311 c179 -7 271 -15 369 -30 176 -28 183 -29 266 -48 286 -68 498 -184
606 -334 55 -77 104 -206 107 -282 l2 -42 -55 -19 c-209 -71 -330 -230 -374
-490 l-11 -65 -50 1 c-64 2 -225 14 -256 19 -13 2 -42 6 -64 9 -147 21 -369
66 -750 152 -270 60 -638 77 -870 39 -11 -2 -39 -6 -61 -10 l-42 -6 -38 68
c-75 136 -215 244 -354 275 -30 6 -56 13 -58 14 -8 5 32 134 57 184 46 92 79
139 150 209 156 155 352 250 649 315 23 5 148 25 192 31 19 3 98 8 175 11 77
4 141 7 142 8 3 2 32 1 268 -9z m1602 -1074 c84 -40 127 -101 148 -211 32
-165 23 -415 -23 -639 -14 -68 -21 -85 -36 -87 -11 -2 -114 -4 -229 -5 -171
-2 -211 0 -217 12 -7 12 -14 85 -26 284 -7 128 -4 412 5 443 5 18 10 35 10 37
8 81 79 174 149 194 58 16 149 4 219 -28z m-3226 9 c89 -25 169 -142 193 -281
17 -100 12 -398 -9 -531 -2 -13 -6 -50 -10 -83 -3 -33 -8 -67 -11 -76 -4 -13
-34 -16 -213 -18 -194 -2 -210 -1 -214 16 -3 10 -15 61 -26 113 -54 253 -65
344 -66 510 0 142 7 197 32 249 38 78 212 132 324 101z m1152 -326 c75 -11
136 -22 262 -48 11 -3 58 -14 105 -25 47 -11 150 -34 230 -50 139 -29 170 -35
243 -46 17 -3 43 -7 57 -10 14 -2 45 -7 70 -10 25 -3 61 -8 80 -10 73 -10 158
-17 243 -20 48 -1 90 -4 91 -6 2 -2 6 -58 10 -124 3 -66 9 -157 12 -202 l6
-83 -144 0 c-78 -1 -278 -3 -443 -5 -828 -10 -1505 -16 -1505 -12 0 2 4 27 10
55 5 28 12 88 15 134 4 46 8 99 10 118 3 19 5 101 5 182 2 167 -9 151 110 164
36 3 67 8 69 10 10 9 388 -1 464 -12z"/>
</g>
</svg>
