<?xml version="1.0" standalone="no"?>
<!DOCTYPE svg PUBLIC "-//W3C//DTD SVG 20010904//EN"
 "http://www.w3.org/TR/2001/REC-SVG-20010904/DTD/svg10.dtd">
<svg version="1.0" xmlns="http://www.w3.org/2000/svg"
 width="872.000000pt" height="872.000000pt" viewBox="0 0 872.000000 872.000000"
 preserveAspectRatio="xMidYMid meet">
<metadata>
Created by potrace 1.14, written by Peter Selinger 2001-2017
</metadata>
<g transform="translate(0.000000,872.000000) scale(0.100000,-0.100000)"
fill="#000000" stroke="none">
<path d="M3768 7025 c-2 -2 -48 -6 -103 -10 -155 -9 -250 -17 -350 -31 -16 -2
-52 -6 -80 -9 -27 -3 -63 -8 -80 -11 -16 -3 -43 -7 -60 -10 -16 -2 -41 -6 -55
-9 -14 -3 -38 -7 -55 -10 -31 -6 -112 -21 -155 -31 -14 -3 -34 -7 -46 -9 -17
-4 -85 -21 -199 -51 -29 -8 -38 -10 -55 -17 -8 -3 -49 -16 -90 -28 -41 -12
-77 -23 -80 -24 -3 -1 -14 -5 -25 -10 -11 -4 -76 -30 -145 -57 -107 -42 -354
-161 -370 -178 -3 -3 -15 -11 -27 -17 -13 -7 -33 -19 -45 -25 -13 -7 -25 -15
-28 -18 -3 -3 -25 -18 -50 -34 -48 -31 -185 -134 -234 -175 -54 -46 -250 -245
-288 -292 -72 -90 -108 -139 -108 -149 0 -6 -4 -10 -9 -10 -5 0 -14 -13 -21
-30 -7 -16 -16 -30 -20 -30 -4 0 -10 -8 -13 -17 -4 -10 -17 -36 -30 -58 -38
-64 -77 -135 -77 -140 0 -3 -11 -30 -25 -61 -25 -54 -104 -277 -104 -292 0 -4
-5 -27 -10 -52 -13 -54 -21 -97 -26 -130 -2 -14 -6 -41 -9 -60 -3 -19 -8 -57
-11 -85 -3 -27 -7 -50 -8 -51 -1 0 -53 -25 -115 -54 -61 -29 -112 -57 -112
-62 0 -5 -4 -7 -8 -4 -10 6 -113 -73 -156 -118 -148 -156 -242 -393 -273 -686
-10 -91 -9 -487 1 -590 13 -139 24 -232 30 -270 3 -14 7 -43 11 -65 3 -22 10
-69 16 -105 6 -36 13 -74 14 -86 3 -18 12 -66 30 -154 2 -14 10 -47 15 -75 6
-27 13 -61 16 -75 2 -14 13 -62 24 -106 11 -45 22 -92 24 -105 3 -13 5 -24 6
-24 2 0 8 -23 15 -60 3 -16 12 -52 20 -80 8 -27 26 -90 41 -140 59 -206 67
-231 75 -247 9 -17 41 -18 522 -13 789 9 1224 13 1817 20 300 4 730 8 955 10
226 3 633 7 905 10 272 3 675 7 895 10 220 2 657 7 970 10 314 4 753 7 977 8
225 1 408 4 408 7 0 3 146 5 325 6 179 0 328 3 331 7 7 7 75 255 90 327 3 14
9 41 14 60 5 19 11 46 14 60 3 14 10 44 16 68 5 23 13 59 16 80 3 20 8 40 9
43 2 3 7 28 10 55 4 27 8 56 11 65 3 9 7 34 9 55 3 20 8 51 11 68 6 31 7 40
19 131 3 28 8 61 10 75 3 14 7 57 10 96 3 39 10 104 14 145 9 76 7 537 -3 599
-3 19 -8 51 -11 70 -3 19 -7 49 -9 65 -17 126 -73 318 -126 433 -17 35 -30 65
-30 68 0 2 -24 41 -54 87 -68 104 -148 191 -234 255 -60 45 -233 138 -317 171
-25 10 -30 17 -31 49 -5 128 -48 366 -99 542 -36 126 -151 361 -233 477 -193
274 -457 489 -804 656 -92 45 -153 71 -153 66 0 -1 -18 7 -40 18 -38 20 -265
99 -350 123 -83 23 -191 52 -205 55 -8 2 -35 8 -60 14 -25 5 -61 13 -80 16
-19 3 -51 10 -70 15 -19 5 -53 11 -75 15 -22 3 -47 7 -55 10 -8 2 -33 6 -55
10 -22 3 -67 10 -100 15 -33 5 -80 12 -105 15 -25 3 -54 7 -65 9 -11 2 -49 7
-85 11 -36 3 -83 8 -105 11 -49 6 -120 13 -200 19 -33 2 -96 7 -140 10 -44 3
-120 9 -170 12 -105 6 -872 13 -877 8z m827 -619 c33 -3 107 -7 165 -10 58 -4
121 -8 140 -11 19 -2 69 -7 110 -10 41 -4 91 -9 110 -11 19 -2 59 -7 89 -10
30 -3 63 -7 74 -10 11 -2 45 -6 76 -10 31 -3 65 -8 76 -10 22 -5 52 -10 140
-25 49 -8 220 -43 260 -53 6 -2 24 -6 40 -10 131 -31 331 -93 445 -138 112
-44 325 -150 365 -181 5 -5 24 -17 40 -27 80 -52 80 -52 169 -133 150 -137
266 -319 325 -512 16 -55 32 -113 35 -130 3 -16 7 -41 10 -53 3 -13 8 -51 12
-83 6 -57 6 -59 -17 -60 -76 -2 -238 -71 -364 -153 -66 -42 -255 -229 -255
-251 0 -7 -4 -15 -9 -17 -13 -5 -111 -180 -111 -199 0 -10 -4 -19 -8 -21 -8
-3 -68 -181 -76 -224 -3 -12 -7 -37 -10 -55 -3 -19 -8 -47 -11 -63 -3 -15 -8
-47 -10 -70 -9 -87 -3 -81 -96 -80 -102 1 -315 12 -349 19 -14 2 -54 6 -90 9
-36 2 -83 7 -105 10 -22 3 -53 8 -70 10 -16 2 -61 10 -100 16 -38 7 -77 12
-85 12 -8 0 -33 4 -55 8 -22 5 -60 11 -85 15 -25 3 -52 8 -61 11 -9 2 -34 7
-55 10 -21 2 -56 9 -77 15 -21 6 -53 12 -70 14 -39 5 -161 30 -408 84 -74 17
-150 33 -169 36 -18 3 -37 8 -42 11 -5 3 -19 7 -31 9 -12 2 -44 8 -72 14 -27
6 -61 14 -75 16 -14 3 -36 8 -50 12 -14 3 -30 7 -37 9 -6 1 -53 11 -105 22
-51 12 -106 23 -123 27 -16 3 -41 8 -55 10 -14 3 -41 7 -60 10 -19 3 -44 7
-56 9 -12 2 -45 8 -75 11 -30 4 -65 9 -79 11 -14 2 -52 6 -85 9 -33 4 -76 8
-95 10 -159 17 -492 22 -695 10 -66 -4 -147 -9 -180 -10 -33 -2 -60 -5 -60 -5
0 -3 -33 -8 -100 -15 -38 -3 -92 -11 -118 -16 -26 -5 -51 -8 -55 -8 -4 1 -9 0
-12 -1 -3 -1 -18 -3 -35 -5 -28 -2 -32 2 -68 74 -44 90 -46 94 -116 191 -55
75 -148 173 -210 220 -18 14 -45 34 -59 45 -64 49 -231 123 -330 146 -72 16
-85 19 -114 21 -34 3 -35 8 -3 131 84 332 287 618 607 857 37 27 69 50 72 50
2 0 28 16 58 36 43 28 283 154 310 162 14 5 43 15 93 35 80 31 215 76 215 71
0 -2 17 3 38 11 32 12 178 52 222 60 19 3 93 18 100 20 3 0 27 4 53 9 27 4 57
9 67 11 9 2 33 6 51 9 19 3 43 8 55 10 11 2 47 7 80 10 32 4 77 9 99 12 49 6
124 12 275 20 63 3 116 7 118 9 4 4 671 -4 747 -9z m2945 -2077 c40 -2 174
-44 246 -79 90 -43 157 -103 198 -177 28 -48 75 -176 82 -223 3 -14 9 -47 14
-75 31 -161 33 -651 4 -800 -4 -17 -6 -37 -6 -45 0 -8 -4 -46 -9 -85 -6 -38
-12 -86 -14 -105 -3 -19 -11 -71 -19 -115 -9 -44 -17 -93 -20 -109 -3 -16 -10
-54 -16 -83 l-11 -53 -92 -1 c-51 0 -182 -2 -292 -4 -378 -6 -547 -7 -551 -2
-2 2 -6 33 -9 68 -3 35 -7 89 -10 119 -3 30 -7 91 -10 135 -3 44 -7 105 -10
135 -23 278 -24 981 -1 1019 2 3 7 23 10 44 17 109 85 251 152 320 39 40 107
86 124 84 3 0 15 5 27 11 11 6 45 14 75 18 29 3 54 7 55 8 1 1 17 1 35 -1 18
-2 40 -4 48 -4z m-6245 -45 c17 -4 41 -11 55 -17 14 -6 27 -11 30 -11 39 -7
210 -163 210 -192 0 -6 7 -17 15 -24 8 -7 15 -21 15 -31 0 -11 5 -19 10 -19 6
0 10 -9 10 -19 0 -11 4 -22 9 -25 17 -11 65 -181 77 -271 14 -105 18 -397 9
-585 -8 -175 -15 -277 -19 -311 -5 -31 -13 -102 -22 -188 -2 -19 -6 -50 -9
-70 -2 -20 -7 -54 -11 -76 -3 -22 -10 -63 -15 -91 l-10 -51 -162 -2 c-89 -1
-277 -4 -418 -6 l-257 -3 -12 41 c-7 23 -14 53 -17 67 -2 14 -9 43 -14 65 -6
22 -12 49 -14 60 -2 11 -10 49 -19 85 -8 36 -18 83 -21 105 -4 22 -8 45 -9 50
-4 13 -15 73 -20 108 -3 15 -9 53 -15 85 -6 31 -13 77 -16 102 -3 25 -8 58
-12 75 -3 16 -7 43 -8 60 -1 16 -6 71 -11 120 -11 114 -12 462 -1 535 21 145
60 252 109 296 34 31 135 81 220 108 119 39 250 50 343 30z m2070 -638 c92 -7
192 -16 230 -21 103 -13 133 -17 155 -21 14 -2 41 -7 60 -9 19 -3 55 -10 80
-15 25 -5 56 -12 70 -14 14 -2 55 -11 91 -20 37 -8 78 -17 90 -20 40 -8 62
-13 124 -29 33 -9 103 -25 155 -36 52 -11 138 -30 190 -41 52 -12 106 -24 120
-26 13 -3 56 -12 95 -20 38 -9 81 -17 95 -20 14 -2 45 -9 70 -14 41 -9 73 -15
138 -26 12 -2 32 -6 45 -8 32 -6 277 -46 312 -52 17 -2 41 -6 55 -9 14 -2 50
-7 81 -10 31 -3 66 -7 77 -10 67 -12 349 -35 517 -41 106 -4 158 -7 175 -12 3
-1 6 -26 7 -54 2 -111 22 -467 28 -518 2 -19 7 -78 11 -130 3 -52 8 -98 11
-102 6 -10 156 -7 -1122 -22 -258 -3 -677 -8 -930 -11 -253 -3 -625 -8 -827
-9 -202 -2 -371 -6 -375 -9 -5 -3 -15 -2 -22 2 -7 5 -30 5 -52 1 -22 -4 -39
-3 -39 2 0 5 -5 6 -11 3 -6 -4 -188 -9 -405 -11 l-394 -3 4 42 c3 23 7 51 9
62 3 11 8 47 11 80 4 33 9 71 11 85 3 14 7 50 10 80 2 30 7 80 10 110 14 129
17 212 21 510 l4 315 67 12 c38 6 97 15 133 18 36 4 79 9 95 11 17 2 80 6 140
10 61 3 111 7 112 8 5 4 399 -3 468 -8z"/>
</g>
</svg>
