<svg xmlns="http://www.w3.org/2000/svg" viewBox="0 0 698.35 89.48"><defs><style>.cls-1{fill:#fff;}</style></defs><title>logo-livingroom-blanco</title><g id="Layer_2" data-name="Layer 2"><g id="Layer_1-2" data-name="Layer 1"><path class="cls-1" d="M18.77,59.58l-.44-1.42a54.6,54.6,0,0,1-1.6-7.39c-.79-5.86.08-9.42,2.66-10.87,2.9-1.63,5.79-1.82,8.14-.55s4,4.1,4.24,7.58a42.06,42.06,0,0,1-.5,8.53l27.31-.32a77.87,77.87,0,0,1-.36-8.3c0-3.59,1.35-6.31,3.68-7.67s5-1.15,7.77.39,4.11,5.21,3.7,10.79a40.94,40.94,0,0,1-1.24,7.17L71.73,59Zm5.41-17.09a6,6,0,0,0-2.83.87c-.56.31-1.32,2.11-.67,6.88a47.91,47.91,0,0,0,1.07,5.34l5.49-.07a40,40,0,0,0,.56-8.33c-.14-2-.94-3.67-2.16-4.34a3.08,3.08,0,0,0-1.46-.35m41-.22a2.51,2.51,0,0,0-1.3.33c-1.07.62-1.69,2.18-1.72,4.28a79.25,79.25,0,0,0,.38,8.21L68.66,55c1-4.56,1.38-10.72-.91-12a5.43,5.43,0,0,0-2.54-.77"/><path class="cls-1" d="M57.81,49.76c-4.21,0-9.07-1-15.09-2.42a29.27,29.27,0,0,0-12.43,0l-1-3.83a32.37,32.37,0,0,1,14.35,0c6.89,1.59,12.49,2.76,16.7,2.16l.57,3.92a20.51,20.51,0,0,1-3.08.21"/><path class="cls-1" d="M64.19,41c0-.24,0-.49,0-.74-.12-2.35-.27-5-2.5-7.16-2.88-2.78-8.73-4.28-17.38-4.46-7.64-.16-13.37,1.47-16.57,4.7a9.41,9.41,0,0,0-2.88,6.48l-4,.17a13.42,13.42,0,0,1,3.93-9.35c4-4.14,10.62-6.15,19.57-6,9.83.21,16.39,2,20.07,5.57,3.34,3.23,3.56,7.18,3.71,9.8,0,.24,0,.47,0,.69Z"/><path class="cls-1" d="M44.42,88.7A44.36,44.36,0,1,1,81.6,68.64L77.07,67c5.27-6.88,7.16-14.84,7.16-22.61A39.81,39.81,0,1,0,44.42,84.09a36.8,36.8,0,0,0,24.26-8.4l1.84,4.56a44.16,44.16,0,0,1-26.1,8.45"/><polygon class="cls-1" points="90.58 89.48 68.3 80.53 68.68 75.69 82.5 81.26 77.07 66.96 81.83 66.55 90.58 89.48"/><polygon class="cls-1" points="122.97 20.86 128.37 20.86 128.37 63.64 155.29 63.64 155.29 68.62 122.97 68.62 122.97 20.86"/><path class="cls-1" d="M155.46,68.79H122.8V20.69h5.74V63.47h26.92Zm-32.32-.35h32V63.81H128.2V21h-5.06Z"/><rect class="cls-1" x="179.41" y="20.86" width="5.4" height="47.75"/><path class="cls-1" d="M185,68.79h-5.74V20.69H185Zm-5.4-.35h5.06V21h-5.06Z"/><polygon class="cls-1" points="208.38 20.86 214.4 20.86 231.41 62 248.49 20.86 254.3 20.86 233.73 68.96 228.95 68.96 208.38 20.86"/><path class="cls-1" d="M233.85,69.13h-5l-.05-.1L208.12,20.69h6.39l0,.11,16.86,40.76,17-40.87h6.18Zm-4.79-.34h4.56L254,21h-5.43l-17.2,41.42L214.28,21h-5.64Z"/><rect class="cls-1" x="277.88" y="20.86" width="5.4" height="47.75"/><path class="cls-1" d="M283.44,68.79h-5.73V20.69h5.73Zm-5.39-.35h5.05V21h-5.05Z"/><polygon class="cls-1" points="310.95 20.86 316 20.86 346.14 59.14 346.14 20.86 351.4 20.86 351.4 68.62 347.09 68.62 316.21 29.46 316.21 68.62 310.95 68.62 310.95 20.86"/><path class="cls-1" d="M351.57,68.79H347L316.38,30V68.79h-5.6V20.69h5.31l.05.07L346,58.64V20.69h5.6Zm-4.39-.35h4.05V21h-4.92v38.6L315.92,21h-4.8V68.44H316V29Z"/><path class="cls-1" d="M376.48,44.88v-.14c0-13.1,9.63-24.69,24-24.69,8.06,0,13.05,2.31,17.84,6.34l-3.49,4.09A20.39,20.39,0,0,0,400.26,25C389.67,25,382.08,34,382.08,44.6v.14c0,11.39,7.31,19.85,18.93,19.85a22.53,22.53,0,0,0,13.8-4.77V48H400.26V43.1H420v19a29,29,0,0,1-19.2,7.3c-15,0-24.32-10.92-24.32-24.56"/><path class="cls-1" d="M400.8,69.6c-7.25,0-13.45-2.49-17.92-7.21a25.19,25.19,0,0,1-6.57-17.51v-.14A25.46,25.46,0,0,1,383,27.36a23.54,23.54,0,0,1,17.5-7.48c7.36,0,12.56,1.85,18,6.38l.13.11-3.71,4.36-.13-.12a20.13,20.13,0,0,0-14.44-5.41c-10.1,0-18,8.52-18,19.4v.14c0,11.77,7.54,19.68,18.76,19.68a22.4,22.4,0,0,0,13.63-4.68V48.12H400.08V42.93h20.09V62.21l-.05,0A29,29,0,0,1,400.8,69.6m-.34-49.38c-13.35,0-23.81,10.77-23.81,24.52v.14c0,14.36,9.93,24.39,24.15,24.39a28.7,28.7,0,0,0,19-7.21V43.27h-19.4v4.5H415V59.9l-.06.05A22.76,22.76,0,0,1,401,64.76a18.41,18.41,0,0,1-13.95-5.71,20.84,20.84,0,0,1-5.15-14.31V44.6c0-11.07,8.06-19.75,18.35-19.75a20.37,20.37,0,0,1,14.53,5.39l3.27-3.83c-5.28-4.4-10.39-6.19-17.6-6.19"/><path class="cls-1" d="M445.83,20.86H466.4c5.88,0,10.59,1.78,13.6,4.78a13.19,13.19,0,0,1,3.69,9.41v.14c0,7.91-5.47,12.55-13,13.92L485.4,68.62h-6.63L464.9,50.06H451.23V68.62h-5.4Zm20.09,24.36c7.18,0,12.3-3.68,12.3-9.83v-.13c0-5.87-4.51-9.42-12.23-9.42H451.23V45.22Z"/><path class="cls-1" d="M485.74,68.79h-7.05l-.06-.07L464.81,50.23H451.4V68.79h-5.74V20.69H466.4c5.73,0,10.61,1.72,13.72,4.83a13.31,13.31,0,0,1,3.74,9.54v.13c0,7.35-4.68,12.46-12.85,14Zm-6.88-.35h6.2L470.4,49l.28-.05c8.16-1.48,12.84-6.5,12.84-13.75v-.13a13,13,0,0,0-3.64-9.3C476.83,22.71,472,21,466.4,21H446V68.44h5.06V49.89H465L465,50Zm-12.94-23H451.06V25.67H466c7.76,0,12.4,3.58,12.4,9.59v.14c0,6.07-4.89,10-12.47,10m-14.52-.34h14.52c7.37,0,12.13-3.79,12.13-9.65v-.14c0-5.79-4.51-9.24-12.06-9.24H451.4Z"/><path class="cls-1" d="M506.79,44.88v-.14c0-13.17,9.9-24.69,24.46-24.69s24.32,11.39,24.32,24.55v.14c0,13.17-9.9,24.7-24.46,24.7S506.79,58,506.79,44.88m43.18,0v-.14C550,33.9,542,25,531.11,25s-18.72,8.73-18.72,19.57v.14c0,10.85,7.92,19.72,18.86,19.72S550,55.73,550,44.88"/><path class="cls-1" d="M531.11,69.6a24.11,24.11,0,0,1-17.74-7.39,25,25,0,0,1-6.75-17.33v-.14a25.11,25.11,0,0,1,6.82-17.4A25,25,0,0,1,549,27.27a25,25,0,0,1,6.75,17.33v.14a25.1,25.1,0,0,1-6.82,17.4,24.2,24.2,0,0,1-17.81,7.46m.14-49.38A24.15,24.15,0,0,0,507,44.74v.14c0,13.9,10.38,24.39,24.15,24.39A24.15,24.15,0,0,0,555.4,44.74V44.6c0-13.9-10.38-24.38-24.15-24.38m0,44.41a18.53,18.53,0,0,1-13.66-5.85,20.41,20.41,0,0,1-5.37-14V44.6c0-11.25,8.12-19.75,18.89-19.75a18.51,18.51,0,0,1,13.66,5.85,20.41,20.41,0,0,1,5.37,14v.14c0,11.26-8.12,19.75-18.89,19.75m-.14-39.44c-10.57,0-18.55,8.35-18.55,19.41v.14c0,11,8.21,19.55,18.69,19.55s18.55-8.35,18.55-19.41v-.14c0-11-8.21-19.55-18.69-19.55"/><path class="cls-1" d="M578.53,44.88v-.14c0-13.17,9.91-24.69,24.47-24.69s24.32,11.39,24.32,24.55v.14c0,13.17-9.91,24.7-24.46,24.7S578.53,58,578.53,44.88m43.19,0v-.14c0-10.84-7.93-19.71-18.86-19.71s-18.72,8.73-18.72,19.57v.14c0,10.85,7.92,19.72,18.86,19.72s18.72-8.73,18.72-19.58"/><path class="cls-1" d="M602.86,69.6a24.11,24.11,0,0,1-17.74-7.39,25,25,0,0,1-6.76-17.33v-.14a25.16,25.16,0,0,1,6.82-17.4,25,25,0,0,1,35.56-.07,25,25,0,0,1,6.75,17.33v.14a25.1,25.1,0,0,1-6.82,17.4,24.22,24.22,0,0,1-17.81,7.46M603,20.22a24.14,24.14,0,0,0-24.29,24.52v.14c0,13.9,10.38,24.39,24.15,24.39a24.15,24.15,0,0,0,24.29-24.53V44.6c0-13.9-10.38-24.38-24.15-24.38m0,44.41a18.5,18.5,0,0,1-13.66-5.85,20.41,20.41,0,0,1-5.37-14V44.6c0-11.25,8.12-19.75,18.89-19.75a18.49,18.49,0,0,1,13.65,5.85,20.37,20.37,0,0,1,5.38,14v.14c0,11.26-8.12,19.75-18.89,19.75m-.14-39.44c-10.58,0-18.55,8.35-18.55,19.41v.14c0,11,8.21,19.55,18.69,19.55s18.55-8.35,18.55-19.41v-.14c0-11-8.21-19.55-18.69-19.55"/><polygon class="cls-1" points="652.4 20.86 657.87 20.86 675.29 46.92 692.72 20.86 698.18 20.86 698.18 68.62 692.78 68.62 692.78 29.93 675.36 55.52 675.09 55.52 657.66 30 657.66 68.62 652.4 68.62 652.4 20.86"/><path class="cls-1" d="M698.35,68.79h-5.74V30.49l-17.16,25.2H675l0-.07L657.83,30.56V68.79h-5.6V20.69H658l17.33,25.93,17.33-25.93h5.73ZM693,68.44h5V21h-5.2l-17.52,26.2L657.78,21h-5.21V68.44h4.92v-39l17.69,25.9h.09l17.69-26Z"/></g></g></svg>